<svg xmlns="http://www.w3.org/2000/svg" width="24.618" height="13.984" viewBox="0 0 24.618 13.984">
  <g id="filter" transform="translate(-1.166 -8.438)">
    <path id="Path_27" data-name="Path 27" d="M24.58,10.906H2.37a1.234,1.234,0,0,1,0-2.468H24.58a1.234,1.234,0,0,1,0,2.468Z" fill="#ec1c24"/>
    <path id="Path_28" data-name="Path 28" d="M21.979,18.781H8a1.234,1.234,0,0,1,0-2.468H21.979a1.234,1.234,0,0,1,0,2.468Z" transform="translate(-1.512 -2.117)" fill="#ec1c24"/>
    <path id="Path_29" data-name="Path 29" d="M18.858,26.656H14.745a1.234,1.234,0,0,1,0-2.468h4.113a1.234,1.234,0,0,1,0,2.468Z" transform="translate(-3.326 -4.234)" fill="#ec1c24"/>
  </g>
</svg>
